<svg fill="none" xmlns="http://www.w3.org/2000/svg" viewBox="0 0 101 31"><g clip-path="url(#a)"><path d="M67.3 0H67c-.5.1-1 .6-1.1 1.1 0 .2-.1.3-.4.6l-.2.3-.5.7v.6l-.3 1c0 .2-.3.5-.5.7l-.4.7-.6 1.8V8l-.1.2-.4 1.3-.2.4-.5.7-.2.5h-.2c-.1-.1-.3-.2-.3-.4v-.5c0-.2 0-.4-.2-.7-.1-.2-.1-.5 0-.8v-.3c0-.3 0-.7-.2-1-.2-.2-.4-.4-.4-.7 0-.3 0-.7.2-1 .2-.5.5-1.4.5-1.9 0-.3 0-.6-.3-.8-.2-.3-.5-.4-.8-.4-.2 0-.4 0-.5.2-.2 0-.3.3-.6.6l-.1.2a3 3 0 0 0-.6 1.4l-.2.6-.4.5-.4-.2a.9.9 0 0 0-1 .2c-.3.3-.4.6-.6 1.1l-.2.8V9l-.2.3v.5a22.6 22.6 0 0 0-.5 1.4l-.3 1a6 6 0 0 0 0 2v.5l.1.8v.8l-.5.7-.6 1c-.2.6-.2 1.3-.2 1.7l.2.9.2.5c.1.4 0 1-.1 1.3v.1c-.1.4 0 .8.1 1V25l.1 1.1c.2.7.7.8.9.9h.1l.4-.1c.3-.1.4-.4.6-.7l.2-.6.1-.6a11.6 11.6 0 0 0 .2-.6c.1-.3.3-.6.3-1.2l-.1-1.2-.1-.6.2-.5.3-.3c.2-.2.4-.4.6-1V17.9l.1-.6.1-.8v-.2l.2-1 .1-.6.1-1v-.4c.1-.2.5.2.6.3v.1l.1.2v.5a3.4 3.4 0 0 0 .5 1.6l.2.6v.5l.2.6v1c0 .3.2.6.4.8l.3.2.3.1v.4c0 .4.2.8.4 1.1.2.4.5.6.7.7h.4c.5 0 .9-.3 1-.8l.1-.8v-1l.3-.7.3-.5.1-1.2v-.8l.4-.5v.5l.3 1 .1.2V19a4.6 4.6 0 0 0 .8 2l.2.2v.4l-.2 1.2c0 .2 0 .4.2.6l.2.3c.1 0 .2.1.2.3v.3l.1.5c0 .2.2.4.4.5l.2.2.3.2V26.3c0 .3 0 .6.3.8l.2.2h.4l.4.3h.3c.2 0 .4 0 .5-.2.3-.1.4-.5.4-.8V26l-.1-.1V25.3L69 24l-.1-.1c-.2-.2-.2-.3 0-.9v-1l-.2-.5c-.1-.2-.3-.3-.3-.5-.1-.1 0-.3 0-.4l-.1-1.3-.2-.2-.2-.7.1-.3.3-.7v-.3c.2 0 .2.2.2.3v1.9c0 .6.5 1.1 1.1 1.1h.3l.2.1.3.2.2.2a1.2 1.2 0 0 0 1 .5l.4-.1.3-.1h.7a4 4 0 0 0 1.7-1.3v-.1l.4-.4a3.1 3.1 0 0 0 .6-1v-.2l.1-.1.1.1v.3l-.1.4v2.1c0 .6.5 1 1 1 .4 0 .7-.2.8-.4.5-.4.5-1 .5-1.6v-.3l.3-.5.4.7.4.5.2.3v.4l.2 1 .2.7c0 .7.6 1.3 1.1 1.5h.3c.5 0 1-.3 1-.8l.1.8c0 .3.1.7.3 1l.1.1c.2.3.5.4.7.4h.2l-.1.2-.1.1-.5.3-.5.3-.8.6-.2.1-.3.3a4 4 0 0 0-.6.7c-.4.4-.5.8-.5 1.1v.1c.2.5.6.8 1 .8h.3c.4 0 .7-.3.9-.5l.2-.2.4-.3c.1-.2.4-.5.7-.6l.7-.2 1-.2a5.8 5.8 0 0 0 1.6-1.5l.4-.4c.3-.2.7-.5 1-1a5.2 5.2 0 0 1 .8-1.4l.2-.1.2-.3.3-.6v-.3s.2-.3.9-.7l.6-.4.5-.3c.5-.4.7-.8.8-1v-.1c.1-.2.6-.6.8-.6h.1l1.4-.8a2.8 2.8 0 0 0 .8-1l.1-.2.3-.2a4 4 0 0 0 1.3-1l.6-.3.3-.1.7-.6a53.4 53.4 0 0 0 1.5-1.5 1 1 0 0 0-.2-1.1l-.6-.3h-.1l-.8.2-.6.3-.2.1-.8.6-.2.2-.6.4c-.3 0-.5.2-.6.4l-.2.1h-.1l-1 .5h-.5l-.3.2-.1-.2-.1-.2-.2-.1v-.3l-.2-.3-.2-.4v-.4a8.2 8.2 0 0 0 0-1.9c-.2-.4-.4-.6-.6-.7V11L92 11a8.6 8.6 0 0 0-.3-.9l-.2-.3c0-.2 0-.7-.2-1.1l-.2-.4c0-.3-.2-.5-.3-.8l-.2-.3-.3-.6a.9.9 0 0 0-.7-.4h-.2c-.3.1-.6.4-.7.7v2.2l-.2.2-.1 1 .1 1 .1 2c0 .5.2.9.3 1.2l.2.3V16l-.2-.2-.3-.1-.6-.2c-.2 0-.2-.2-.3-.3l-.3-.1c-.3-.1-.5-.2-.8-.1-.2 0-.3-.2-.4-.3h-.6l.1-.5.1-.3.2-1.1.1-.3.2-.9V11l-.2-.3c-.1-.2 0-.3 0-.4l.4-.6c.3-.6.3-1 0-1.4a1 1 0 0 0-.9-.5c-.4 0-.8.2-1 .5-.2.1-.3.3-.3.4l-.2.5-.3.4-.3.6-.2 1v.4l-.4.8v.9l-.2.4c0 .1-.2.4-.1.6 0 .2-.2.1-.3 0v-.7l-.3-.9c-.1-.2-.5-.5-.4-.7v-.5c0-.6-.5-1-1-1.2H79.6l-.5-.2H79l-.6.1-.3.2-.2.2-.1-.2V10l-.3-.3a1 1 0 0 0-.7-.3c-.8 0-1.2.6-1.2 1.2v1.6l-.1.4V14v-.4l-.2-.3c-.1-.4-.2-1-.6-1.4l-.1-.1-.8-.7h-.3a2.5 2.5 0 0 0-1.1-.4c-.7 0-1.2.4-1.4.6a5 5 0 0 0-.7.7l-.6.7c-.4.2-.6.5-.8.8l-.2.6c0 .1 0 .5-.2.5v-.3l-.1-.4a1 1 0 0 0-.3-.3v-1l-.1-.2v-.7c0-.4-.2-.8-.3-1l-.1-.9V8.5L67 6.6V5.2c0-.5 0-1 .2-1.3l.3-.5.6-1.6c.2-.6 0-1 0-1.3a1 1 0 0 0-.8-.5h-.1Zm11.4 13.8h.1v.6h-.1v-.1h-.1V14h-.1l.1-.2.1-.1Zm-3.4 1.4v.1l.3.6c0 .1 0 .2.2.3h.1v.3l-.2.5-.3-.5-.2-.2-.2-.3.1-.4.2-.3v-.1Zm-3.7.5.1.1.2.2v.2l-.2.9c0 .1 0 0-.2 0l-.3-.2-.1-.4v-.3l.2-.3.3-.2Zm9 .2.1.2c0 .4.3.7.7.8l.4.2.6.1c.3.1.2.3.2.5l-.1.5-.2.7.2.8v.4c-.1.3-.1.5 0 .8v.7a3 3 0 0 1 0 1.2l-.2.4V23c0-.4-.2-.7-.3-1l-.2-.5V20l-.2-.8-.3-.4-.2-.4-.1-1-.4-.6-.1-.1-.2-.2V16l.4-.2Zm9 1.2h.1v.4a14.9 14.9 0 0 1-.4 1v.7c0 .2-.1.2-.2.3h-.2l-.3.1c-.5.2-1.2.3-1.4 1v.2c0 .2 0 .2-.2.3-.3.3-1 .8-1.1 1.3a1.1 1.1 0 0 0 0 .9v.3l-.2.2c-.2 0-.3.2-.4.3a6 6 0 0 0-.5.4l-.2.3-.2.3V25l.1-.5.1-.4v-.1l.2-1 .1-.6v-1l.1-.4.2-.3.2-.8v-.6c-.1-.3 0-.6.1-.9V18c.1-.1.3 0 .4 0h.9l.3.2.9.2c.4 0 .7-.2.8-.3l.2-.3.1-.3.2-.2s0-.2.2-.2ZM26.6 16.6v.2c-.2.3-.4.6-.4 1 0 .3 0 .3-.2 0a1 1 0 0 0-.6-.2 1 1 0 0 0-.4.1l-.4.3h-.1l-.3-.3-.7-.2h-.4l-.2.1h-.4V17a1.2 1.2 0 0 0 0-.9c-.2-.2-.3-.3 0-.5l.3-.3.7-.5c0-.2.2-.3.3-.4l.2-.4h.6l.7-.2.3-.2.3-.3v.3c-.1.3-.4.8-.5 1.4 0 .4 0 .7.3 1a1 1 0 0 0 .6.4h.3ZM16 20.5H16c-.2-.4-.6-.5-.8-.8-.2-.5-.5-1.2-1.2-1.6l-.6-.2-.3-.1-.2-.3c-.2-.3-.5-.3-.7-.4-.2 0-.2-.2-.3-.3 0-.2-.1-.3-.3-.4v-.1l.2-.2V16h.2c.2 0 .4 0 .6-.2.2 0 .4-.2.5-.3l.7-1 .1-.6.1-.3.4-.4.1-.9V12a2.1 2.1 0 0 0 .6-1v-.2l.1-.2.3.2.3.3.2.1-.1.3c-.1 0-.2 0-.3.2-.2.3-.2.7-.1 1.1v.5l-.1.6.1.5.1.2c.2.1.1.2 0 .4a2.6 2.6 0 0 0-.3 1l.2.7.2.2.1.2v2.4l.3.5v.6ZM10.6 11c0 .2-.2.3-.3.4l-.3.4c-.2.2-.3.5-.3.8 0 .2 0 .7-.2.7l-.3.1a2.8 2.8 0 0 0-1.2.6c-.2.2-.4 0-.6 0v-.3l-.2-.3-.2-.3v-.7l-.2-.4-.2-.3-.2-.3V11l-.1-.5-.4-.6c-.2-.2-.1-.4-.1-.5v-1c0-.2.4-.1.5-.2l.8-.5.3-.2h.9l.1.3.3.3.4.2.3.1.3.1v.3l.3.3.2.3.2.2-.1.5v.4l.3.5v.1Zm25-1.8a1 1 0 0 0-.8-.3 2 2 0 0 0-.7.1 8 8 0 0 0-2.2 1.6c-.3.1-.4.3-.5.4l-.3.3h-.3c-.2 0-.3.2-.5.3l-.3.2c-.2.2-.2.2-.2 0v-.7l-.2-.5v-.4c0-.3-.2-.5 0-.7l.2-1.3c0-.4 0-1.4-.9-1.6h-.2a1 1 0 0 0-.5 0L28 7h-.4a1 1 0 0 0-.5.2 1 1 0 0 0-.4.5c-.2.4-.1.8 0 1v.2a9.2 9.2 0 0 1 0 1.5 11.1 11.1 0 0 0-.2 1v.5l-.2.2c-.1.2-.2 0-.3-.2l-.3-.2-.7-.2-.8.1-.3-.1-.5-.2a2.7 2.7 0 0 0-2 .8l-.1.3-.1.3-.3.2-.4.1-.3.3c-.2.1-.6.6-.6 1.3l-.1.4-.1.2c-.1.2-.3.5-.2 1 0 .1-.2.3-.2.1V16a1.3 1.3 0 0 0-.7-.9V15l.1-.6.1-.5c.1-.6 0-1-.2-1.3V12l-.1-.7-.2-.2-.3-.1v-.2l.2-.3.2-1v-.4l.1-.2c0-.1.2-.7-.1-1.2l-.5-.3v-.3l-.1-.3a1 1 0 0 0-.3-.3l-.7-.2c-.7 0-1.2.4-1.4 1h-.2l-.1-.2-.2-.2V5.6c-.1-.6-.5-.9-.7-1-.2-.2-.5-.3-.8-.3h-.4v-.2a1 1 0 0 0-.4-.4c-.2-.2-.4-.3-.7-.3H11l-.3-.1-.7-.4a6 6 0 0 1-.5-.2l-.3-.2-.6-.3a2.7 2.7 0 0 0-1.2-.1h-.6a2 2 0 0 0-.7.5H6l-.5.4-.3.2-.7.4a3 3 0 0 1-.4 0l-.5-.1h-.1l-.5.1-.6.3-.4.3-.2.2h-.4c-.3 0-.6.2-.7.5-.3.4-.3.8-.3 1.2 0 .4.2.7.4 1l.3.2.1.3V8c-.2.5-.3 1.1 0 1.8.1.5.4.8.7 1 0 .2.2.3.3.4l-.1.7-.1.4v.6l.1.2v.2l.2.5v.5c0 .4 0 .8.3 1.1l.2.3c0 .1.2.2.1.3v.3l.1.7v.2c.2.4.5 1 .5 1.5l-.1.7c-.2.3-.2.7-.1 1 0 .2.2.4.3.5l.2.3.1.3-.2.5-.1.7c0 .5 0 .9.4 1.4l.1.4.3.6.1.2v1l.1.6.3.4c.2.1.3.2.3.4v.8a1.8 1.8 0 0 0 .8 1 1 1 0 0 0 1.3-.2c.3-.4.3-.8.3-1v-.8l.3-.3c.1-.2.3-.4.3-.7.1-.4 0-.8-.3-1.1v-.5c.1-.3.3-.7.1-1.2L8 23l-.2-.2v-.2l-.2-.1.1-.2.2-.4a2.2 2.2 0 0 0 0-1.3v-.2l-.1-.2v-.2l.1-.2v-.2c0-.1 0-.2.2-.1H8.7l.3.2.1.3c0 .2.3.5.6.7l.6.3h.4l.2-.1.2.1.4.1c.2 0 .3.3.3.5.1.7.6 1.1 1.2 1.1h.3l.3.1c.1.6.5 1 1 1.3h.1l.2.1c.3 0 .3.4.5.6 0 .2.2.4.4.6l.6.4.3.2v.4l.4 1 .4.4.3.5c0 .2.2.5.7.7l.3.2h.1v.2h.1l.2.4c.2.3.5.4.8.5h.1c.4 0 .6-.2.8-.4.4-.5.2-1 .2-1.2l-.2-1c0-.5-.5-1.4-.8-1.8l-.5-.5-.3-.4c0-.3 0-.6-.2-1l-.6-.6-.5-.2-.3-.2v-.3l.2-.1.2-.2.3-.6V20l.2-.2v-.2c.1-.2.2.1.3.1a1 1 0 0 0 .6.5h.3c.1.2 0 .4.2.6l.3.4c.1.4.1.7.3 1 .1.3.4.5.8.5.8 0 1.1-.8 1.3-1.2v-.2l.3-.3h.3l.3-.1.5-.4h.2l.2-.1h.4c.8 0 1-.5 1.3-.7v-.1l.2-.2v.2l-.1.4-.1.5a5.2 5.2 0 0 0-.4 1.3c0 .5 0 .9.2 1 .1.5.4.9 1 .9.3 0 .7-.1 1-.8a2 2 0 0 0 .3-.8V22c.1-.3.4-.8.5-1.4l.1-.8v-.5l.2-.2.1.1.3.2.1.3.2.2.1.6.1.5c.2.5.5.7.7.9l.4.8.1.4.5.8v.2l.2.5.2.5v.4c0 .3.1.7.3.9a1 1 0 0 0 1.4 0l.3-.4.6-.3c.2-.3.3-.7 0-1.5l-.1-.7-.5-1.3-.2-1v-.7l-.5-1-.2-.2V19c0-.2 0-.5-.3-.9-.1-.2-.3-.4-.6-.5l-.5-.1c-.2 0-.2-.2-.3-.3a5 5 0 0 0-.3-.4l-.5-.6-.2-.5c-.1-.3.1-.2.3-.3l1.3-.8.5-.8.2-.7.4-.2.4-.3.7-.6c.1-.2.2-.5.5-.7l.3-.3.3-.2c.3-.2.4-.5.5-.8 0-.3 0-.5-.2-.8" fill="#BFDE42"/><path d="M87.5 27.6v-.4l.2.4.2-.4v.4-.3l-.1.3-.2-.3v.3Zm-.2 0v-.4H87h.4-.2v.4Z" fill="#91A126"/><path d="M50.2 19.7c0-.3-.2-.6-.3-.8v-1.2l-.1-.4v-.5l.2-.8.1-.6.1-.2c0-.3.1-.6 0-.8V14l-.2-.2v-.2l.2-.5v-.2l.2-.7c0-.5-.2-1-.7-1.2H49c-.3.1-.6.4-.7.7l-.5 1v.6l-.2.5v.5l-.3.4-.1.5c0 .2 0 .5-.2.6l-.2.2-.2.2c-.2.1-.1-.2-.1-.3v-.3l.3-1.2c0-.3 0-.5-.2-.7-.2-.6-.6-.7-.9-.7-.5 0-.8.3-1 .8v.1c-.2.1-.3.3-.4.6v.3l-.2.3c-.3 0-.2-.3-.3-.4 0-.2 0-.4-.2-.5-.2-.6-.7-.8-1-.8a1 1 0 0 0-.7.2c-.2.1-.2.3-.3.4-.2 0-.1-.1-.2-.2v-1.1c0-.1-.1-.4-.4-.7a1 1 0 0 0-.7-.3c-.6 0-1 .5-1 .7a2 2 0 0 0-.3.6v.4c-.1.2-.2.2-.3.2-.4.1-.7.5-.8 1l-.2.4-.2.6v.9h.1v.6l-.3.8c0 .2 0 .3-.2.4l-.1.4c-.2.2-.2.5-.2.9l.1.5.2.3v.4c0 .2 0 .5.2.7.2.2.5.4.8.4a1 1 0 0 0 1-.9l.1-.2.2-.3.1-.5v-.3l.2-.3.3.5.2.6.4.7c.2.3.5.4.8.4.3 0 .5 0 .7-.2l.3-.3.1-.4.5-.1.4-.2c.1-.2.1-.6.3-.6.2 0 .2.2.3.4 0 0 0 .2.2.3.1.2.4.4.7.4h.4l.2-.1.3.2.7.2.7.2h.7c.2-.1.2 0 .4.2 0 .2.4.5 1 .5.2 0 .5 0 .7-.3.4-.3.6-.8.5-1.3l-.2-.8" fill="#BFDE42"/><path d="M9.8 14.4h-.4l-.8.5c-.2.2-.4.5-.7.5l-.4-.2-.4-.2-.4.2-.3.2c-.2 0-.2-.1-.3-.2 0-.2 0-.5.2-.7v-.6l-.2-.1a.5.5 0 0 1-.2-.4v-.2c0-.3.1-.6 0-.8h-.2c-.1-.1-.3-.2-.3-.4v-1l-.2-.3v-.1l-.2-.2-.2-.4V8.8l-.2-.2a.7.7 0 0 1-.1-.5c0-.3 0-.7.3-.8H6c.2 0 .4-.2.6-.4l.7-.4H8.6l.3.1v.2l.5.6h.5l.3-.1c.2 0 .6.5.5.8v.4l.4.4c.3.3.5.5.5.7 0 .2-.2.3-.3.4v.2c.2.2.3.4.3.7v.7l-.4.3-.2.4h-.1l-.1.2-.2.3c0 .7-.1 1-.2 1.2-.2.3-.4.3-.6.4ZM20 28.7l-.1-.6v-.2l-.7-1.3c-.4-.5-.9-.8-.9-1.2v-.3l-.1-.4-.4-.4-.2-.1c-.2-.1-.6-.3-.8-.7-.2-.4-.3-.6-.5-.6-.2-.1-.5-.3-.6-.6l-.1-.4-.3-.8-.6-.4a1 1 0 0 1-.2-.2l-.3-.5c-.1-.4-.3-.8-.8-1a.6.6 0 0 0-.3-.2l-.3.1h-.3l-.2-.3-.1-.3-.2-.2-.2.1-.2.1-.4-.6-.2-.5c-.1 0-.2-.3-.4-.3h-.4v-.2l-.2-.1c-.2-.2.1-.4.3-.5l.4-.3.2-.4.4-.4h.5l.3-.1.3-.2c.3-.4.5-.9.5-1.4l.1-.3.2-.2s.2 0 .2-.3V12l.1-.4.2-.3c.2-.2.4-.5.4-1V9l.1-.6c0-.2 0-.4-.2-.6-.2 0-.3-.2-.4-.4V5.8c0-.2-.1-.3-.3-.4l-.3-.1-.7.1c-.3 0-.4-.2-.5-.3v-.5l-.1-.2h-1.1a4 4 0 0 1-.4-.3l-.4-.3c-.3 0-.5-.2-.7-.3l-.7-.4a2 2 0 0 0-.9 0h-.4c-.2 0-.3.2-.5.3A18.9 18.9 0 0 0 6 4c-.4.3-.9.6-1.3.6h-.1l-.6-.1h-.4c-.2 0-.4.2-.5.3l-.2.1-.2.2-.5.4h-.2l-.3-.2v.1l-.1.6c0 .1 0 .3.2.4l.2.3c.2.2.4.3.4.8l-.1.8c-.1.4-.2.8 0 1.1 0 .3.2.5.5.8.3.3.6.6.6 1l-.2 1v.5l.1.2v.4c.2.3.2.5.2.8V14.9l.3.3c.2.2.3.3.3.6v.8l.1.3.5 1.8c0 .4-.1.7-.3 1v.4l.2.2.2.4c.2.5.3.8.2 1.1v.3c-.2.1-.2.2-.2.6 0 .4 0 .6.2.8l.3.8.1.3.1.1.2.3v1.4l.2.2c.2.2.4.3.4.6v1l.2.2.2.2.2-.3v-.6c0-.1-.1-.3 0-.4 0-.2 0-.3.2-.4l.3-.3c.2-.4 0-.5 0-.7h-.1l-.2-.6v-.5c0-.3.3-.6.2-.9l-.2-.3-.2-.4-.2-.5v-.2c0-.2 0-.4.2-.5l.2-.8-.2-.5-.1-.5.2-.6-.1-.2c-.2-.3-.4-.8-.3-1.1.1-.3.4-.5.6-.5.1 0 .3.1.5.4.2.1.4.4.6.4H9.1c.3.2.7 1 .8 1 0 .2.1.4.3.5h.1c.2-.1.3-.3.5-.3s.4.1.5.3l.2.1h.1l.4.1.6 1.2c.1.4.3.4.3.4h.1l.3-.2h.6l.5 1v.2c.2.2.4.4.7.4h.1c.2 0 .3.1.5.4l.1.2c.1.3.3.7.6.9l.4.3.2.1.5.4.1.2v.3l.2.8.7 1 .3.4c.3.1.6.1.8.5l.1.2.2.3h.1c.2.1 0-.3 0-.3v-.3" fill="#193840"/><path d="m5.6 7.7.4-.1.6-.5.6-.3h1.5V7l.2.3.4.4h.6l.2-.1c.1 0 .2 0 .3.2v.4l.1.5a6.3 6.3 0 0 0 .6.7s.2 0 .2.2l-.1.1-.1.2c-.1.1-.1.3 0 .4v.1l.2.5V11.5h-.1l-.3.3v.2l-.2.1-.1.2a1 1 0 0 0-.2.5l-.3 1c0 .2-.2.3-.3.3h-.5l-1 .6-.1.2-.3.3-.2-.2c-.1-.1-.3-.3-.6-.3-.2 0-.4.2-.6.4h-.1l.1-.5v-.1c.1-.2.3-.4.1-.6 0-.2-.1-.2-.2-.2l-.1-.1v-.4c0-.3 0-.8-.3-1l-.1-.1-.2-.2-.1-.2.1-.4v-.5l-.2-.2v-.1l-.2-.2-.2-.1V9L5 8.6l-.2-.2v-.3l.1-.5h.7Zm2.2-5a3.3 3.3 0 0 0-.8.1l-.4.3h-.1a22 22 0 0 0-.8.7c-.3.2-.7.5-1.1.5H4l-.3-.1a1 1 0 0 0-.4 0 3 3 0 0 0-.5.3l-.2.2-.2.2s-.2.3-.4.3l-.3-.1h-.1s-.2 0-.3.2l-.1.7c0 .2.1.5.3.6l.2.3c.2.1.3.2.3.6v.7c-.2.4-.3.9-.1 1.3 0 .4.3.6.6.9.2.2.5.5.5.9l-.1.8-.1.3.1.4v.7c.2.2.2.3.2.5v.2l.1.9.3.3.3.4v.2c-.1.2-.2.4 0 .7v.3c.2.4.5 1 .5 1.7 0 .3 0 .7-.2 1v.5l.1.3.3.4c.2.4.2.7.2.9l-.1.1-.2.8c0 .4 0 .7.2 1l.3.6.2.4.1.2.1.2v1.5l.3.3c.2 0 .4.2.4.3v1.1a1 1 0 0 0 .4.5H7l.1-.5v-1l.1-.2.4-.4c.3-.5 0-.8 0-1l-.2-.5v-.6c.2-.2.3-.5.2-.8l-.2-.3-.1-.2L7 23l-.2-.4v-.2l.2-.4c.1-.2.3-.5.2-1 0-.2 0-.4-.2-.6v-.4c0-.1.2-.3.1-.5v-.3c-.2-.3-.4-.7-.3-1l.2-.2c.2 0 .4.2.4.3l.7.5h.8c.3 0 .7.7.7 1l.4.4h.5l.1-.1.2-.1s.2 0 .3.2l.2.2h.3l.3.1.2.3.3.6c0 .4.2.6.5.6h.2l.3-.1h.2c.2 0 .5.7.6.9.2.4.5.7.8.7h.2c.1 0 .2 0 .3.2v.2l.7 1 .4.3.3.2c.2 0 .3.2.4.3V26c0 .4.2.7.3 1l.3.4.4.5c0 .2.1.4.4.5l.2.1.5.4v.1h.1c0 .2.1.3.2.3l.3.3c.1 0 .2 0 .3-.2v-.8L20 28v-.2l-.7-1.4-.4-.5-.4-.5V25c0-.2 0-.4-.2-.6l-.4-.4-.3-.2c-.2 0-.5-.2-.7-.5v-.1c-.2-.3-.3-.6-.6-.7l-.5-.4v-.4l-.4-.8-.7-.6h-.1l-.2-.5c-.2-.4-.4-1-1-1.2a1 1 0 0 0-.4-.2l-.3.1-.2-.1-.2-.4-.3-.3H11.8l-.1.1-.2-.3v-.1l-.3-.4c0-.2-.3-.5-.6-.5h-.3l.1-.3h.1l.4-.3.2-.4.3-.3h.4l.4-.2.4-.2c.4-.5.5-1.1.6-1.6v-.2h.1c.2-.1.3-.2.4-.6v-.8l.2-.2c.2-.2.5-.6.5-1.1V9l.1-.7a1 1 0 0 0-.4-.8l-.2-.3V5.7c0-.2-.3-.4-.4-.5A.8.8 0 0 0 13 5l-.5.1h-.4V4.4l-.2-.3H10.8l-.4-.3-.6-.3-.6-.3L9 3 8.5 3a2 2 0 0 0-.7-.1ZM5.6 7.5h-.4L5 7.2h-.2c-.3 0-.3.5-.3.8l.1.5.2.2V10c0 .1 0 .3.2.4l.1.1.1.1.2.4v.5c-.1.2 0 .3 0 .4v.1c0 .2.2.3.3.3l.1.1c.2.2.2.5.2.8V13.8h.2l.2.2v.3l-.1.2c-.2.2-.2.5-.2.7l.2.1h.4c.1-.2.2-.3.4-.3l.4.2.4.2c.3 0 .5-.3.7-.5.2-.2.5-.4.8-.4l.4-.1c.2 0 .4-.1.6-.4 0-.1.2-.5.2-1.2 0 0 0-.2.2-.3v-.1l.2-.1.2-.4.3-.3V11c.1-.3 0-.5-.2-.6V10c0-.1.3-.2.3-.4s-.2-.4-.5-.7l-.4-.4v-.4c0-.3-.3-.7-.4-.8h-.4l-.4.2C9.1 7.2 9 7 9 6.7l-.1-.2H7.7l-.4-.1h-.1l-.7.4-.6.4h-.3M7.8 3l.6.1.7.4.6.3c.2 0 .4.2.5.3l.4.3H11.7v.2l.1.3v.2c0 .1.2.3.5.3l.7-.1.3.1c.2 0 .3.2.4.4v1.5l.2.4.3.6-.1.6v1.5c0 .4-.2.7-.4 1 0 0-.2 0-.2.2v.9l-.3.3-.2.2v.3c-.1.5-.3 1-.6 1.4l-.3.2h-.3l-.5.1-.4.4-.2.4-.4.3c-.2 0-.5.3-.3.5h.1l.1.2.2.1h.2c.2 0 .3.2.4.3l.2.5.4.6h.2l.1-.2h.1l.2.2.1.3.2.3H13.4c.5.3.7.7.8 1.1l.3.5.2.2c.2 0 .4.3.6.5l.2.7.1.4.7.6c.2 0 .3.2.4.5v.1c.3.4.7.6.8.6h.1l.2.2c.2 0 .3.2.4.4v.4l.1.3c0 .4.5.7.9 1.2.2.3.6 1 .6 1.3v.2c.2.2.2.5.2.6v.3s.1.4 0 .4v-.1l-.3-.3v-.2c-.3-.4-.6-.4-.9-.5-.2-.1-.2-.2-.3-.4l-.7-1-.2-.7v-.4l-.1-.2-.4-.3-.3-.2-.5-.3-.5-.9v-.2c-.3-.3-.4-.3-.6-.3h-.1c-.3 0-.5-.3-.6-.5v-.1l-.6-1-.3-.2a1 1 0 0 0-.3.1l-.3.1c-.1 0-.3 0-.4-.3 0-.3-.4-1-.6-1.2h-.5l-.2-.2c-.1-.2-.3-.3-.5-.3s-.3.2-.5.3h-.1a1 1 0 0 1-.3-.4c0-.2-.5-.9-.8-1H8.2l-.6-.5c-.2-.3-.4-.4-.5-.4-.2 0-.5.2-.6.5 0 .3.1.8.3 1v.3l-.1.6v.5c.2.1.3.3.3.5l-.2.8-.2.5v.2c0 .2 0 .4.2.5l.2.4.2.3-.2 1v.4c0 .2 0 .4.2.6.1.2.3.3 0 .7l-.2.3c-.1.1-.3.2-.3.4v1.3h-.1l-.2-.2-.1-.2v-1c0-.2-.3-.4-.5-.5l-.2-.2V25c0-.1 0-.2-.2-.3v-.1c-.2-.1-.2-.2-.2-.3-.1-.3-.1-.5-.4-.8l-.1-.8.1-.6.1-.3c.1-.3 0-.6-.2-1l-.2-.5-.2-.2v-.3c.2-.4.3-.7.2-1.1 0-.7-.2-1.4-.4-1.8v-.2c-.2-.3-.1-.4-.1-.6v-.3l-.3-.6-.2-.3c-.2-.3-.2-.5-.1-.7v-.1c0-.3 0-.5-.2-.8V12.7c-.1 0-.2-.1-.2-.3l.1-.2.2-1c0-.4-.4-.7-.6-1-.3-.3-.5-.5-.6-.8V8.3l.2-.8c0-.5-.2-.6-.4-.8l-.2-.3a.8.8 0 0 1-.2-.4v-.6H2l.2.1.5-.4.2-.2.2-.1.4-.3H4l.5.1h.2c.4 0 1-.3 1.3-.6a31.5 31.5 0 0 1 .7-.6l.5-.3h.7M16 10c.2 0 .3.1.3.2.1.1.2.3.4.3s.5-.1.5-.8l.1-.8v-.5c0-.2-.2 0-.3 0h-.2v-.8c0-.2-.1-.3-.3-.3-.3 0-.5.1-.6.4l.1.3.1.4-.2.4-.2.7c0 .3.2.5.2.5" fill="#193840"/><path d="M16.4 7c-.3 0-.6.2-.7.6v.5l.1.2-.1.4-.3.7c0 .5.2.7.4.8h.1l.2.2c.1.1.2.3.6.3.3 0 .8-.1.8-1V9l.1-.1v-.7a.4.4 0 0 0-.4-.2H17v-.5c0-.2-.1-.5-.5-.5Zm0 .3c.3 0 .3 0 .3.3v.2l.1.5h.5V9l-.1.8c0 .7-.3.8-.5.8s-.3-.2-.4-.3l-.2-.2h-.2s-.3-.2-.2-.5l.2-.7.2-.4V8l-.2-.3c.1-.3.3-.4.5-.4ZM17.4 15l.1-1 .1-.4V13l-.1-.1V12s0-.2-.2-.2H17l-.2.2h-.6c-.1 0 0 .3 0 .4v.9l-.1.4.1.2.2.1v.9c-.2.3-.4.6-.4.9 0 .2.2.3.3.4l.2.3V19l.2.4.1.2v1.7c0 .3.2.5.3.5.1 0 .2 0 .2-.2v-1c0-.6 0-.8.2-1v-.1l.3-1c0-.3 0-.4-.2-.6l-.1-.4.3-.9.2-.3c0-.2 0-.4-.3-.5-.3-.2-.4-.6-.4-1" fill="#193840"/><path d="M17.3 11.6H17c-.2 0-.3.2-.3.2h-.5l-.3.1v1.5l-.1.4c0 .3.2.3.3.4v.8l-.3.9c0 .3.2.5.3.6l.1.2V18.6l.1.3v.2l.1.5.2.2v1.6c0 .4.2.8.5.8.4 0 .4-.3.5-.5v-1.1l.1-.8v-.1l.4-1.2-.2-.6-.1-.3c0-.2.1-.5.3-.7l.2-.5c0-.3-.1-.6-.4-.7-.3-.2-.3-.4-.3-.8l.1-.7.1-.5-.1-1c-.1-.2 0-.3 0-.4v-.2c0-.3-.2-.5-.5-.5Zm0 .3c.2 0 .2.1.2.2v.7c.1.3.2.5.1.8v.5l-.2.8c0 .4 0 .8.4 1 .3.1.3.3.3.5 0 0 0 .2-.2.3-.1.3-.4.6-.3 1l.1.3.2.5c0 .2 0 .6-.3 1v.2c-.1.2-.2.4-.2 1v.9l-.1.3c-.2 0-.4-.2-.4-.5v-1.7l-.1-.2c0-.1-.2-.3-.1-.4v-.6a1 1 0 0 1-.1-.6v-1.3l-.2-.3c-.1 0-.3-.2-.3-.4 0-.3.2-.6.3-.8V15c.2-.3.2-.7.1-.9l-.2-.1-.1-.2v-.4l.2-.5-.1-.4s-.1-.4 0-.4H17l.2-.2h.2M25.4 18.5l-.3.3-.5.1a1 1 0 0 1-.5-.1l-.1-.1-.6-.3h-.2c0 .1-.1.2-.3.2h-.2l-.2-.1-.3.1-.6.3a.6.6 0 0 1-.5-.3V18l.3-.5.3-.7c0-.2-.1-.3-.2-.3l-.2-.2c-.1-.3 0-.7.4-1.1l.6-.5.5-.4.2-.3h.1l-.2-.2v-.2c0-.2.6-.4.9-.4.4 0 1 0 1.1-.2.2 0 .6-.3.5-.5l-.1-.1c-.3-.1-.5 0-.8 0l-.4.1c-.2 0-.3 0-.4-.2l-.3-.2-.8.2-.2.1-.4.4v.2c0 .2 0 .4-.3.5l-.9.3c-.1.2-.3.3-.3.6s0 .5-.2.8l-.1.3c-.1.2-.2.3-.1.6 0 .3-.2.6-.3.8l-.1.1-.1.2-.3.4v.4s.2 0 .3-.2l.2-.1h.1l-.1.5-.1.3-.2.8.2.1h.4c.3 0 .5.1.6.4v.6l.1.2.3.3v.3l.2.7c.2 0 .3-.4.5-.7V21l.8-1h.1l.2.1h.2l.4-.2.5-.3h.8c.3 0 .4-.1.5-.4h.1c.2-.3.2-.6 0-.6" fill="#193840"/><path d="M23.4 11.9c-.4 0-.7 0-1 .2-.3.2-.6.4-.6.7v.1c0 .2-.1.3-.2.3l-1 .4c-.1.2-.4.4-.4.8l-.1.7-.1.3c-.1.1-.2.3-.2.7l-.2.6-.1.2-.2.2-.2.3s-.2.5 0 .7c0 .2.1.2.2.2l.1.1-.2 1c0 .1.2.3.5.3h.4c.2 0 .3 0 .3.2v.6l.3.3.1.2v.2c0 .4.1 1 .5 1s.6-.5.7-.9l.1-.2.3-.6.3-.2.3.1h.2c.2 0 .3-.2.4-.3l.4-.2H25c.4 0 .5-.3.7-.5v-.1c.3-.3.3-.8 0-1h-.2c-.2 0-.3 0-.5.3h-.6l-.2-.1-.7-.4c-.2 0-.3.3-.6.2l-.3-.1h-.1l-.4.2-.4.2-.3-.1v-.3l.3-.6c.3-.4.4-.6.4-.9 0-.3-.3-.4-.4-.5-.1-.2-.1-.5.3-.8l.5-.5.6-.4.2-.2.2-.2v-.3l-.1-.2h.2l.3-.2 1.2-.1c.2 0 .5-.3.7-.6v-.4l-.3-.2a1 1 0 0 0-.4 0 2 2 0 0 0-.5 0h-.2l-.2.1h-.2c-.1-.2-.3-.3-.5-.3Zm0 .2.3.2.4.2h.4l.5-.2.3.1c.2.3-.2.6-.4.6a5 5 0 0 1-1.1.2c-.3 0-.8.2-1 .4v.2l.3.1v.1l-.3.3a3 3 0 0 1-.5.4l-.6.5c-.5.4-.5.8-.4 1 0 .2 0 .2.2.3 0 0 .2.1.2.3l-.3.7-.3.6v.5c.1.2.3.3.4.3.3 0 .5-.1.7-.3l.2-.1h.8l.2-.1.6.3.1.1.5.1.5-.1.3-.3c.2.1.2.4 0 .6v.2c-.2.2-.3.3-.6.3H24c-.2 0-.4.2-.5.3l-.4.2h-.4c-.3 0-.5.3-.8.9l-.1.2c-.2.3-.3.7-.5.7l-.2-.7V21l-.3-.3-.1-.2v-.6c-.1-.3-.3-.4-.6-.4H19.5l.2-.9.1-.3c.1-.2.2-.3.1-.4l-.1-.1-.2.1-.3.2v-.4c0-.2.2-.3.3-.4V17l.2-.1c.1-.2.3-.5.3-.8l.1-.6.1-.3c.2-.3.2-.5.2-.8 0-.3.2-.4.3-.5 0-.1.2-.2.9-.4.3-.1.3-.3.3-.5v-.2l.4-.4h.2c.2-.2.5-.3.8-.3ZM34.7 9.9h-.3l-1.3.9-.2.2-.6.5a1 1 0 0 0-.2.2l-.4.3c-.1.2-.3.3-.4.3H31c-.2 0-.3 0-.7.4-.3.4-.7.5-1 .6l-.2.2H29l-.2.2h-.1l-.1-.1v-1.2l.2-.6-.1-.7v-.4l-.1-.3V10l-.2-.2.1-.4.3-1c0-.7 0-.8-.2-.8-.1 0-.2 0-.3.2 0 0-.1.2-.3.2l-.3-.1h-.2c-.2.3 0 .5 0 .8a9 9 0 0 1 0 1.8v.2l-.2.8-.4 1v.4l-.2.7v.5a4 4 0 0 0-.5 1.2v.2h.4c0-.2.1-.3.3-.4V15c.2-.2.3-.3.5-.3.3.2.2.8 0 1v1l-.2.6-.2.5.3.4-.2 1.4-.1.6-.2.6-.3 1.2v.4c.2.1.2.2.2.3v.2c.2 0 .2-.3.2-.3l.2-.3V22l.2-.4.4-1.1.1-.8.2-1.1c0-.2.2-.3.3-.3h.3l.2-.2c.1-.2.3-.2.4-.2.2.1.3.2.3.4l.2.3c.3.1.3.3.7 1 .2.4.2.7.2.9l.1.3c0 .2.2.4.4.5l.2.2.4 1 .1.3.4.7.2.2.2.9.1.2.1.5v.5H33.3v-1.1l.1-.1.2.2.2.4c.3.1.1-.6.1-.7l-.2-.6-.4-1.4c-.2-.5-.2-.9-.2-1.2l-.1-.5c0-.3-.2-.4-.3-.6l-.3-.4-.1-.6-.1-.5c-.1-.2-.3-.2-.6-.2l-.4-.2-.5-.5-.2-.4-.6-.8v-.1l-.1-.2-.4-.5c0-.4.2-.7.3-.9l.4-.1.3-.2c.3-.1.9-.4 1-.6l.3-.4.4-.9.6-.5.4-.3c.4-.2.5-.3.6-.7l.4-.4.2-.2.3-.3c.1 0 .4-.1.4-.3l-.2-.1" fill="#193840"/><path d="M28.7 7.3c-.2 0-.4.2-.5.3l-.1.1h-.2c0-.1-.1-.2-.3-.2l-.2.1-.1.2V8.7a8.9 8.9 0 0 1 0 1.7v.2a14 14 0 0 1-.5 1.9l-.1.3-.1.8-.1.4-.5 1.2c0 .2 0 .4.2.5l.3.2s.2 0 .3-.2v-.1c.2 0 .3-.2.4-.3v-.1l.3-.2-.2.6v.7l-.1.4-.1.4a1 1 0 0 0-.3.6l.2.4v.1l-.1 1.4-.1.6-.1.5-.4 1.3v.5l.2.2.1.3.3.2c.2 0 .3-.3.4-.4l.2-.4V22c0-.2 0-.3.2-.4l.4-1.2v-.7l.3-1.2h.3c.2 0 .3-.2.4-.3H29.4v.2c0 .1.1.4.3.4a38.3 38.3 0 0 1 .5.8l.3.8v.4c.1.3.3.5.5.6l.1.2c.3.2.4.6.4.9l.2.3.4.7.1.2.2.8.2.3V25.5c0 .2 0 .4.2.5l.3.1c.2 0 .3-.1.4-.3v-.4l.2.1h.1l.3-.1v-1l-.2-.6-.5-1.4-.2-1.1v-.6l-.4-.7-.2-.4-.1-.4c0-.2 0-.4-.2-.6-.2-.3-.5-.4-.7-.4a1 1 0 0 1-.4-.1l-.3-.5-.3-.3c-.3-.4-.5-.6-.5-.8l-.2-.4-.3-.4c0-.2 0-.4.2-.6h.3l.4-.2c.4-.2.9-.5 1-.7l.4-.5c0-.3.2-.6.3-.8.1-.2.3-.4.6-.5l.4-.2c.4-.3.5-.4.7-.9 0-.2.2-.2.3-.3l.2-.2.3-.3c.2 0 .4-.2.5-.5l-.1-.3h-.8a7.9 7.9 0 0 0-2.1 1.5l-.3.3-.3.3-.3.2H31c-.2 0-.4.2-.8.5-.3.4-.6.5-.8.5l-.3.2H29V13l-.1-.3v-.2c.1-.1.3-.3.3-.7v-.6L29 11v-.7l-.1-.4V9.3c.2-.3.3-.6.3-1 0-.5 0-.9-.4-1h-.1Zm0 .3c.2 0 .2.1.2.7 0 .4-.2.8-.3 1.1V10l.1.3v.8c.2.1.2.2.2.7l-.2.6v1.3h.1l.3-.1c.2-.2.2-.3.4-.3s.6-.2 1-.6c.3-.3.4-.4.6-.4h.2c.1 0 .3 0 .4-.3l.4-.3.2-.2.6-.5.2-.2c.3-.2 1-.8 1.3-.8l.3-.1h.2c0 .3-.3.3-.4.4l-.3.3-.2.2-.4.4c-.1.4-.2.5-.6.7l-.4.3-.6.5-.4 1-.2.3-1 .6-.4.2-.4.1c-.1.2-.4.5-.3.9l.4.5v.2h.1l.6 1 .2.3.5.5.4.2c.3 0 .5 0 .6.2l.1.5.1.6.3.4.3.6v.5l.3 1.2c0 .5.3 1 .4 1.4l.2.6s.2.7 0 .7a1 1 0 0 1-.3-.4c0-.2-.1-.2-.2-.2l-.1.1v1l-.1.2H33l-.1-.4v-.2l-.1-.5-.1-.2-.2-.9-.2-.2-.4-.7v-.3l-.5-1-.2-.2-.4-.5v-.3l-.3-1c-.4-.6-.4-.8-.7-.9l-.2-.3c0-.2-.1-.3-.3-.4h-.1c-.1 0-.2 0-.3.2l-.2.2h-.3c-.1 0-.2 0-.3.3l-.2 1.1-.1.8-.4 1-.1.5v.3l-.3.3-.1.3v-.2l-.2-.3s-.1-.1 0-.4l.2-1.2.2-.6v-.6c.2-.3.3-1.3.3-1.4 0-.2-.1-.2-.2-.3V17.3c.2 0 .2-.2.3-.6v-1c.2-.3.3-.8 0-1-.2 0-.3.1-.4.3H27l-.3.4-.1.2h-.2v-.3c0-.5.2-1 .3-1.2l.1-.5.1-.7.1-.3.4-1 .1-1v-.1a5.3 5.3 0 0 0 0-1.8V8H27.8l.3.1c.2 0 .2-.1.3-.2l.3-.2M89 16.6c-.2-.3-.8-.5-1-.5-.3 0-.3 0-.4-.2-.1-.1-.4-.3-.7-.3h-.2a1 1 0 0 0-.4 0c-.1-.4-.4-.4-.6-.4h-.5l-.2.1h-.2l.2-.6.2-.6.1-.4.2-1c0-.1 0-.3.2-.5l.1-.6c0-.5 0-.6-.3-.8-.1-.1-.2-.2 0-.5l.1-.3.5-.7c.1-.3.1-.6 0-.8l-.4-.2c-.4 0-.7.3-.9.8l-.1.3-.2.3c0 .2 0 .2-.2.3l-.2.4-.1 1v.1l-.2.5-.1.2-.1 1-.1.4-.1.2c-.2.3-.1.6-.1.9l-.1.4H82.6l-.4.4H81.9c-.2 0-.3 0-.5.2l-.1.3c0 .2.2.3.3.4h.6l.2.1.3.2h.2c0 .2.2.2.3.2h.2v.4l-.2.3V18.2H83l-.2.6.3.8v.2l-.2.4.1.9v1.4a5.5 5.5 0 0 0 0 .5l-.2.5v.8l.2.7.1.2h.5v-.4l.3-.6v-.4l.1-.1.1-.7.1-.8v-1c.1-.5.2-.6.3-.7l.2-.8v-.5l-.1-.3v-.2l.2-.5V17h.4c.2.2.3.4.6.4h.8v-.1c.2 0 .3 0 .4.2a1.5 1.5 0 0 0 .9.3l.4-.1v-.5c.2 0 .6-.2.5-.6M47.3 19.3h-.1l-.3-.1c0-.1-.2-.3 0-.5v-.4l.2-.2h.1l.4-.3.2-.2.2.3-.1.7-.2.2-.2.2c0 .2-.1.3-.2.3ZM40 16.7h-.1v-.1l-.2-.1h-.5v-.1l.2-.5.3-.7V15l.2.1v1.1l.1.3v.1Zm9.6-3.8v-.2l.2-.5c0-.3-.1-.5-.3-.6H49c-.3.1-.4.4-.5.6l-.1.2-.2.5v.7l-.2.6v.2l-.3.6-.2.7-.1.5-.3.2-.2.2-.2.1c-.2.1-.5.3-.6.6a1 1 0 0 1-.3.3c-.2.1-.3.4-.3.6l-.1.3-.1.1V17.5l.2-.2V17l.1-.5V15.8l.2-.4.1-1v-.5l-.4-.3c-.3 0-.4.3-.5.4v.2l-.3.4c-.1.6-.3 1-.4 1.1l-.1.3v.4l-.2-.1v-.4c-.2-.2-.3-.2-.5-.2h-.2l-.1-.2-.1-.4-.2-.7c-.2-.3-.4-.4-.6-.4h-.2v.1c-.2.1-.2.3-.2.6v1.9l-.2.7-.1.2-.2-.1-.1-.2-.2-.7v-.4a2.7 2.7 0 0 1-.3-1l-.1-1-.1-.6v-.7l-.2-.3-.3-.1c-.3 0-.4.2-.5.4l-.3.6v.1l-.1.6h-.5l-.5.8v.3l-.1.1-.2.4v.6h.1l.1.6-.1.4a8 8 0 0 1-.5 1.3l-.2.4c-.2.4 0 1 .2 1.1v.4l.1.6.3.1c.2 0 .3 0 .4-.3l.2-.4.1-.3c.1-.1.1-.2 0-.4v-.1l.2-.5c.2-.2.2-.4.2-.5l.1-.4.1-.2.2-.3h.1l.2.2v.1c.2 0 .3.4.4.7l.1.5.1.2v.1l.2.5.2.2c0 .2 0 .4.2.5.1.2.2.2.3.2.3 0 .5-.2.5-.5v-1.1l-.1-.2v-.7l.2.2v.9l.4.4h.2c.4 0 .6-.5.6-.7V18l-.1-.1v-.2h.1l.1.2.2.2.2.3.1.1.1.2.3.4.2.6v.1c.2.3.3.6.6.6s.4-.3.4-.5v-.4l.2.5.3.4.4.2h.3v.1l.6.2h.5l.5-.5.1-.2v.2l.1.4c0 .2.1.3.3.5.1.1.3.3.5.3s.3 0 .4-.2c.2-.1.3-.4.3-.7l-.2-.7c0-.3-.2-.6-.3-.8l-.1-1.2V16.7a8.8 8.8 0 0 1 .3-1.4l.1-.3c.1-.4 0-.6-.1-.9-.2-.1-.1-.4 0-.6v-.6" fill="#193840"/><path d="M9.8 14.4h-.4l-.8.5c-.2.2-.4.5-.7.5l-.4-.2-.4-.2-.4.2-.3.2c-.2 0-.2-.1-.3-.2 0-.2 0-.5.2-.7v-.6l-.2-.1a.5.5 0 0 1-.2-.4v-.2c0-.3.1-.6 0-.8h-.2c-.1-.1-.3-.2-.3-.4v-1l-.2-.3v-.1l-.2-.2-.2-.4V8.8l-.2-.2a.7.7 0 0 1-.1-.5c0-.3 0-.7.3-.8H6c.2 0 .4-.2.6-.4l.7-.4H8.6l.3.1v.2l.5.6h.5l.3-.1c.2 0 .6.5.5.8v.4l.4.4c.3.3.5.5.5.7 0 .2-.2.3-.3.4v.2c.2.2.3.4.3.7v.7l-.4.3-.2.4h-.1l-.1.2-.2.3c0 .7-.1 1-.2 1.2-.2.3-.4.3-.6.4ZM20 28.7l-.1-.6v-.2l-.7-1.3c-.4-.5-.9-.8-.9-1.2v-.3l-.1-.4-.4-.4-.2-.1c-.2-.1-.6-.3-.8-.7-.2-.4-.3-.6-.5-.6-.2-.1-.5-.3-.6-.6l-.1-.4-.3-.8-.6-.4a1 1 0 0 1-.2-.2l-.3-.5c-.1-.4-.3-.8-.8-1a.6.6 0 0 0-.3-.2l-.3.1h-.3l-.2-.3-.1-.3-.2-.2-.2.1-.2.1-.4-.6-.2-.5c-.1 0-.2-.3-.4-.3h-.4v-.2l-.2-.1c-.2-.2.1-.4.3-.5l.4-.3.2-.4.4-.4h.5l.3-.1.3-.2c.3-.4.5-.9.5-1.4l.1-.3.2-.2s.2 0 .2-.3V12l.1-.4.2-.3c.2-.2.4-.5.4-1V9l.1-.6c0-.2 0-.4-.2-.6-.2 0-.3-.2-.4-.4V5.8c0-.2-.1-.3-.3-.4l-.3-.1-.7.1c-.3 0-.4-.2-.5-.3v-.5l-.1-.2h-1.1a4 4 0 0 1-.4-.3l-.4-.3c-.3 0-.5-.2-.7-.3l-.7-.4a2 2 0 0 0-.9 0h-.4c-.2 0-.3.2-.5.3A18.9 18.9 0 0 0 6 4c-.4.3-.9.6-1.3.6h-.1l-.6-.1h-.4c-.2 0-.4.2-.5.3l-.2.1-.2.2-.5.4h-.2l-.3-.2v.1l-.1.6c0 .1 0 .3.2.4l.2.3c.2.2.4.3.4.8l-.1.8c-.1.4-.2.8 0 1.1 0 .3.2.5.5.8.3.3.6.6.6 1l-.2 1v.5l.1.2v.4c.2.3.2.5.2.8V14.9l.3.3c.2.2.3.3.3.6v.8l.1.3.5 1.8c0 .4-.1.7-.3 1v.4l.2.2.2.4c.2.5.3.8.2 1.1v.3c-.2.1-.2.2-.2.6 0 .4 0 .6.2.8l.3.8.1.3.1.1.2.3v1.4l.2.2c.2.2.4.3.4.6v1l.2.2.2.2.2-.3v-.6c0-.1-.1-.3 0-.4 0-.2 0-.3.2-.4l.3-.3c.2-.4 0-.5 0-.7h-.1l-.2-.6v-.5c0-.3.3-.6.2-.9l-.2-.3-.2-.4-.2-.5v-.2c0-.2 0-.4.2-.5l.2-.8-.2-.5-.1-.5.2-.6-.1-.2c-.2-.3-.4-.8-.3-1.1.1-.3.4-.5.6-.5.1 0 .3.1.5.4.2.1.4.4.6.4H9.1c.3.2.7 1 .8 1 0 .2.1.4.3.5h.1c.2-.1.3-.3.5-.3s.4.1.5.3l.2.1h.1l.4.1.6 1.2c.1.4.3.4.3.4h.1l.3-.2h.6l.5 1v.2c.2.2.4.4.7.4h.1c.2 0 .3.1.5.4l.1.2c.1.3.3.7.6.9l.4.3.2.1.5.4.1.2v.3l.2.8.7 1 .3.4c.3.1.6.1.8.5l.1.2.2.3h.1c.2.1 0-.3 0-.3v-.3M16 10c.2 0 .3.1.3.2.1.1.2.3.4.3s.5-.1.5-.8l.1-.8v-.5c0-.2-.2 0-.3 0h-.2v-.8c0-.2-.1-.3-.3-.3-.3 0-.5.1-.6.4l.1.3.1.4-.2.4-.2.7c0 .3.2.5.2.5" fill="#42B4CA"/><path d="m17.4 15 .1-1 .1-.4V13l-.1-.1V12s0-.2-.2-.2H17l-.2.2h-.6c-.1 0 0 .3 0 .4v.9l-.1.4.1.2.2.1v.9c-.2.3-.4.6-.4.9 0 .2.2.3.3.4l.2.3V19l.2.4.1.2v1.7c0 .3.2.5.3.5.1 0 .2 0 .2-.2v-1c0-.6 0-.8.2-1v-.1l.3-1c0-.3 0-.4-.2-.6l-.1-.4.3-.9.2-.3c0-.2 0-.4-.3-.5-.3-.2-.4-.6-.4-1M25.4 18.5l-.3.3-.5.1a1 1 0 0 1-.5-.1l-.1-.1c-.3-.2-.5-.4-.8-.2h-.7l-.3.1-.6.3a.6.6 0 0 1-.5-.3V18l.3-.5.3-.7c0-.2-.1-.3-.2-.3l-.2-.2c-.1-.3 0-.7.4-1.1l.6-.5.5-.4.2-.3h.1l-.2-.2v-.2c0-.2.6-.4.9-.4.4 0 1 0 1.1-.2.2 0 .6-.3.5-.5l-.1-.1c-.3-.1-.5 0-.8 0l-.4.1c-.2 0-.3 0-.4-.2l-.3-.2-.8.2-.2.1-.4.4v.2c0 .2 0 .4-.3.5l-.9.3c-.1.2-.3.3-.3.6s0 .5-.2.8l-.1.3c-.1.2-.2.3-.1.6 0 .3-.2.6-.3.8l-.1.1-.1.2-.3.4v.4s.2 0 .3-.2l.2-.1h.1l-.1.5-.1.3-.2.8.2.1h.4c.3 0 .5.1.6.4v.6l.1.2.3.3v.3l.2.7c.2 0 .3-.4.5-.7V21l.8-1h.1l.2.1h.2l.4-.2.5-.3h.8c.3 0 .4-.1.5-.4h.1c.2-.3.2-.6 0-.6M34.7 9.9h-.3l-1.3.9-.2.2-.6.5a1 1 0 0 0-.2.2l-.4.3c-.1.2-.3.3-.4.3H31c-.2 0-.3 0-.7.4-.3.4-.7.5-1 .6l-.2.2H29l-.2.2h-.1l-.1-.1v-1.2l.2-.6-.1-.7v-.4l-.1-.3V10l-.2-.2.1-.4.3-1c0-.7 0-.8-.2-.8-.1 0-.2 0-.3.2 0 0-.1.2-.3.2l-.3-.1h-.2c-.2.3 0 .5 0 .8a9 9 0 0 1 0 1.8v.2l-.2.8-.4 1v.4l-.2.7v.5a4 4 0 0 0-.5 1.2v.2h.4c0-.2.1-.3.3-.4V15c.2-.2.3-.3.5-.3.3.2.2.8 0 1v1l-.2.6-.2.5.3.4-.2 1.4-.1.6-.2.6-.3 1.2v.4c.2.1.2.2.2.3v.2c.2 0 .2-.3.2-.3l.2-.3V22l.2-.4.4-1.1.1-.8.2-1.1c0-.2.2-.3.3-.3h.3l.2-.2c.1-.2.3-.2.4-.2.2.1.3.2.3.4l.2.3c.3.1.3.3.7 1 .2.4.2.7.2.9l.1.3c0 .2.2.4.4.5l.2.2.4 1 .1.3.4.7.2.2.2.9.1.2.1.5v.5H33.3v-1.1l.1-.1.2.2.2.4c.3.1.1-.6.1-.7l-.2-.6-.4-1.4c-.2-.5-.2-.9-.2-1.2l-.1-.5c0-.3-.2-.4-.3-.6l-.3-.4-.1-.6-.1-.5c-.1-.2-.3-.2-.6-.2l-.4-.2-.5-.5-.2-.4-.6-.8v-.1l-.1-.2-.4-.5c0-.4.2-.7.3-.9l.4-.1.3-.2c.3-.1.9-.4 1-.6l.3-.4.4-.9.6-.5.4-.3c.4-.2.5-.3.6-.7l.4-.4.2-.2.3-.3c.1 0 .4-.1.4-.3l-.2-.1M45.7 14h-.1l-.2.2-.3.5-.4 1.2-.2.5v.8c-.2 0-.4-.3-.4-.4l-.2-.5-.1-.2c0-.2-.2-.2-.2-.2h-.2c-.2 0-.3-.2-.4-.3v-.4l-.3-.6c0-.2-.2-.3-.3-.3 0 0-.1 0 0 .4l-.2.8v.6l.1.5c0 .4-.2.7-.3.8v.1c-.2.2-.1.5 0 .7v.3l.2.2v.8l.2.3c.2 0 .4-.3.4-.5V18.1c-.2-.3 0-1 0-1v-.2c.2 0 .2.1.3.4l.1.1.2.2.2.2.1.1.1.2.1.1.2.3.2.4.3.6c0 .3.1.5.3.5l.1-.5v-.2l.1-.5v-1.2l.2-.4V17l.1-.5v-.2l.1-.6.3-1.3-.1-.3M40 17H40l-.2-.1-.1-.2-.3.1H39v-.5c0-.2 0-.4.2-.6l.2-.6c.1-.3.1-.4.3-.4.4 0 .5.4.5.7v.7c.1.2.2.8-.2.9Zm1.5 3v-1.3c0-.8-.1-1.1-.3-1.4-.2-.2-.2-.5-.2-.7v-.4a3 3 0 0 1-.3-.9v-.2l-.2-1v-.6l-.1-.6-.1-.2c-.1-.2-.3.1-.4.2l-.2.7-.2.6c-.1.2-.3.2-.4.2h-.2l-.3.5-.1.4-.2.5v.5c.2.3.2.6.1.8v.2l-.3 1-.3.5-.1.3c-.2.3 0 .7.1.9v.5l.1.4h.2c0-.3.2-.4.3-.6l.1-.2v-.4c-.2-.3 0-.5.2-.7l.2-.3v-.5s.4-.7.7-.7l.1.1.2.2h.1l.5 1 .1.4v.2l.1.1.1.4.2.4.2.4h.1c.1 0 .2 0 .2-.3V20M48.1 18.7c0 .2 0 .2-.2.3l-.1.2-.4.4h-.2l-.6-.3c0-.1-.2-.5 0-.8v-.2l.3-.4.2-.1.3-.2.4-.2c.3 0 .4.2.5.5 0 .3 0 .6-.2.8Zm1.3 1.3-.3-.8c-.2-.4-.2-1-.2-1.3a8.6 8.6 0 0 0 0-.5v-.8l.2-.8.2-.6V14.3c-.2-.3-.2-.6-.1-.9l.1-.6v-.2l.2-.5-.1-.2h-.2c-.2 0-.3.3-.4.5l-.2.6v.5l-.2.7v.3h-.1l-.3.6-.1.6c0 .4-.1.6-.2.7l-.5.4-.3.2c-.1 0-.4.2-.4.4l-.5.5-.1.3c0 .1 0 .3-.2.4v1.2l.3.2.3.2.3.1h.1l.4.2h.4l.4-.4.1-.3c.1-.2.1-.3.3-.3l.2.6v.1l.1.4c0 .2 0 .3.2.4.1.1.3.3.5.1.2-.1.2-.3.2-.5l-.1-.6" fill="#42B4CA"/><path d="m78.7 15.2-.3-.3a2 2 0 0 0-.4-.6l-.2-.2v-.3h.1c.2-.1.4-.2.6-.6 0-.3.2-.4.4-.6H79.8c.2 0 0 .1 0 .2-.4.2-.5.3-.6.5v.5l.1.4c0 .4-.5 1-.6 1Zm2.4 8.6h.1c.3 0 .5-.2.5-.4V23l-.2-.7c-.2-.2-.3-.5-.3-.7V20c0-.4-.2-.7-.6-1.2-.2-.3-.1-.3-.1-.6 0-.6-.2-.9-.4-1.1V17c-.2-.3-.4-.5-.8-.6l-.1-.3.3-.2h.2v-.1c.2 0 .3-.2.6-.4l.4-.1.4-.2c.3-.2.7-.6.7-1 .1-.2 0-.8-.2-1v-.2l-.4-.5v-.2l-.2-.1v-.2l.2-.5c0-.2-.4-.5-.6-.6H79.7l-.4-.1-.3-.1c-.3 0-.6.2-.7.4l-.2.3-.4.4-.1.2c0 .1-.1.3-.2.2v-.2l-.1-.6v-.4c0-.2 0-.5-.3-.7l-.3-.1h-.2c-.2.1-.3.3-.3.6v1.5l-.1.6v1.5l-.2.7c0 .7.3.8.5 1 .1 0 .2 0 .2.4l-.2.3-.1.5c-.2.3 0 .5 0 .7l.2.3v.5l-.1.4v2c0 .2.2.3.5.3h.3c.3-.3.3-.9.3-1.3l.1-.6.2-.6V17.1l.1-.4s.1-.1.1 0v1.2c0 .3.2.4.4.5l.1.2.8 1c0 .2.2.4.4.5l.1.2c.2.2.2.6.2 1l.1.6.1.1.2.8c0 .5.4.9.7 1M72.5 18.4H72c-.1.1-.1-.1-.1-.2l-.2-.2V18c-.2-.3-.4-.5-.6-.5h-.1s-.2 0-.3-.3V16c0-.2.2-.3.3-.4l.3-.4V14.3l.4-.5h.3v.2l-.2.3v.5c0 .2 0 .4.3.5v.1l.4.2c.2.2.2.2.1.5v.4c-.2.2-.3.4-.2.8l.1.4.1.3v.4Zm2.4-1.6-.3-.4-.2-.3.1-.6.1-.1.2-.3v-.9c0-.5 0-.8-.2-1V13l-.3-.6-.1-.2-.6-.5-.3-.1a2 2 0 0 0-1-.2c-.4 0-.8.2-1 .4-.2.2-.7.7-.8 1 0 .2-.1.2-.3.3h-.1l-.7.7-.2.8-.1.4-.1.2c-.2.1-.4.4-.4.8l.2.8h.1c.2.4.3.9.2 1.2v1.3c0 .3.3.6.5.6h.2l.5.1.1.1.4.2h.2v.1c0 .1.1.4.4.5h.2l.5-.2h.7c.5-.2 1.2-.8 1.4-1v-.2l.5-.5c.1-.1.5-.7.5-1 0-.5 0-.7-.3-1.1v-.1M99.8 13.5l-.3-.2-.5.2H99l-.6.3h-.1l-.7.6-.2.2-.8.4-.4.3-.3.3h-.3l-.8.4-.6.2h-.4a1 1 0 0 0-.6.6v.1l-.2.1.1-.2c0-.2.2-.4 0-.7 0-.3-.2-.5-.3-.7h-.1V15c0-.2-.2-.3-.3-.5V13.3l-.2-1.2c0-.2-.2-.3-.3-.5l-.2-.2-.1-.2-.2-.4a19.9 19.9 0 0 0-.3-.8c0-.3 0-.7-.2-1l-.2-.5-.2-.7a5 5 0 0 1-.2-.4l-.3-.4-.2-.1c-.2 0-.2 0-.3.2V8l.1.7V9.3l-.2.1-.1.1-.1.8.1.7v.4l.1 1.9.3 1 .2.4v1.1c0 .3.3.5.3.5l.3.1s.1 0 0 .1v.4a6.8 6.8 0 0 1-.4 1.3l-.1.4v1.2h-.2l-.4.2-.2.1-.4.1c-.5.2-.8.3-.9.5-.1.3.1.5.3.5l-.2.1-.5.4c-.4.2-.8.6-1 1 0 .2 0 .4.2.6v.2s0 .2-.5.7l-.4.4-.5.4-.1.2c0 .1 0 .2-.2.3l-.4.3-.5.6-.2.3-.6.4-.5.2-.7.6-.2.1-.3.3a4 4 0 0 0-.5.5l-.4.7c.1.3.3.4.5.4.3 0 .5-.2.6-.3l.3-.3.3-.3 1-.7.7-.2 1-.2a5.2 5.2 0 0 0 1.3-1.3l.5-.5.1-.1c.2-.1.5-.3.6-.7l.5-.9.5-.6.2-.2.2-.2.2-.4.1-.4 1-.9a22.8 22.8 0 0 1 1-.8c.5-.2.6-.5.7-.7V20c.2-.3.9-.8 1.2-1h.1a3 3 0 0 0 1.2-.6c.5-.4.6-.7.6-.9v-.2l.8-.4c.2-.1.9-.5 1-.7l.8-.5a3.4 3.4 0 0 0 .9-.7l1.2-1.1.1-.2v-.3M69 26.4V26l-.1-.1v-.6l-.5-1c-.3-.4-.3-.7-.2-1.4.2-.7.1-1-.2-1.4-.3-.3-.3-.4-.3-.8v-1.1l-.1-.3c-.1-.2-.3-.5-.3-.8 0-.3 0-.4.2-.7l.2-.6c.2-.7.1-1 0-1.3v-.7c.2-.6.2-1 .1-1.1l-.1-.2-.3-.4V11.8c0-.4-.2-.7-.3-1l-.1-.2v-.8l-.1-1.2c0-.6-.3-1.4-.4-1.8V5c0-.5.1-1 .3-1.4L67 3l.6-1.5c.2-.4 0-.7 0-.8l-.3-.2c-.3 0-.6.4-.7.7l-.5.8-.3.3-.3.5v.5l-.3 1.1-.6.9a4 4 0 0 0-.4.5l-.5 1.7v.5l-.2.4-.3 1c0 .3-.1.5-.4.8-.3.3-.5.6-.7 1.2v.5l-.2.6-.1.8v.7a4.4 4.4 0 0 1 0 1 4.9 4.9 0 0 1-.3 1.2l-.1-.6c-.2-.2-.2-.4-.2-.7v-.4L61 14v-2.3l-.2-.4h-.2v-1a1 1 0 0 0-.3-.6v-.1c-.2-.1-.1-.6-.1-1v-.2c0-.6 0-.8-.4-1l-.1-.6c0-.3 0-1 .2-1.4 0-.2.5-1.2.5-1.6l-.1-.4a.5.5 0 0 0-.4-.2h-.2a2 2 0 0 0-.4.5l-.1.3c-.1 0-.5.6-.5 1 0 .5-.2.9-.3 1a2 2 0 0 0-.6 1v.4h-.1v-.1l-.1-.2-.2-.2h-.3l-.2.3V7l.1-.2c0-.2 0-.3-.2-.4h-.3v.1c-.1.1-.3.4-.4 1L56 8V9h-.1v.3l-.2.5-.1.6-.3.9-.3 1c-.2.6 0 1.4 0 1.8v.4l.1.9c0 .8-.1 1.3-.3 1.6l-.3.3-.6.9v1.4l.1.7.2.6a4 4 0 0 1-.1 1.6v.7l.2.3v.4l-.1 1c0 .8 0 1.3.5 1.3h.1c.1 0 .2-.1.3-.4l.2-.4.1-.6.1-.4.2-.4.2-.9a5.6 5.6 0 0 0-.2-1.3v-.2c0-.3 0-.6.3-1.1.1-.3.3-.4.4-.5l.4-.6v-1.6a13.7 13.7 0 0 1 .2-1.5v-.1c0-.3 0-.6.2-1l.1-.8.1-.8-.1-.8-.1-.6c0-.5.1-1 .4-1.8l.1-.5.2-.1v1.5c0 .5.4.8.5.9l.2.4c0 .2.2.3.3.4l.3.2.2 1c0 .7.1.9.3 1.2v.2l.3.9.1.6.1.2v.4c0 .2-.1.5 0 .8 0 .4.3.6.6.6.2 0 .3.1.3.2l.1.4c0 .4 0 .8.3 1.2 0 .2.2.3.4.4h.2c.2 0 .4-.1.4-.4v-.6l.1-1 .4-1 .2-.4v-1l.2-1 .3-.6c.2-.2.5-.5.6-1 .3-.7.3-1 .1-1.4 0-.4 0-.9.2-1.5v-.1l.2-.7V12c.1 0 .2 0 .3.2l.5.6c0 .2 0 .4-.2.6l-.1.7-.2.5-.1.3V16l.2.8.1.4V19c0 .3.3 1.2.7 1.7l.1.1c.2.2.2.3.2.5v.2l-.1.4v.2l-.1.6c0 .5.3.6.5.7v.2c0 .4 0 .7.2 1 0 .2.3.4.6.5l.3.3v.6c0 .2-.1.6.2.7.1 0 .3 0 .3-.2l.1.1c0 .2.2.4.4.4h.2l.1-.4v-.2" fill="#193840"/><path d="M81.7 16.1h.5c.2 0 .2.1.3.2l.3.1.2.1s.2.2.3.1h.2c.2 0 .2 0 .2.3l-.1.5-.2.3v.7l-.2.4.2.6v.5l-.1.4v.6l.1.2v1.7l-.1.2v.5l-.1.8.1.6h.1l.1-.2.2-.6v-.3l.1-.2.2-.6v-.8l.1-1c0-.5.1-.7.2-.8v-.1c.2-.1.2-.3.2-.6v-1.1l.1-.4V16.9c0-.2.2-.3.4-.3l.4.2c.2.2.3.3.5.3H86.8l.4.1.3.2.5.1h.2l-.1-.2v-.2l.2-.1c.2-.1.4-.2.3-.3l-.3-.3h-.6a.5.5 0 0 1-.3-.3l-.5-.2h-.2l-.4.1H86c-.2 0-.1 0-.1-.2v-.2h-1c-.2 0-.4 0-.4-.2l.2-.8.1-.6.1-.4.2-.8.2-.7.2-.5c0-.4-.1-.5-.2-.6h-.1c-.3-.3-.2-.6 0-.8l.1-.3.4-.7c.2-.3.1-.5 0-.5l-.1-.1c-.3 0-.5.2-.6.6l-.2.4-.1.2-.2.4-.2.3-.2 1c0 .2 0 .4-.2.6v.2c-.2.2-.1.7-.1.9l-.2.5v.2c-.2.2-.1.5-.1.7 0 .4-.1.6-.2.7l-.4.1h-.3l-.4.3H82l-.3.1v.2l.1.1M78.7 15.4c-.3 0-.4-.2-.5-.4l-.4-.5-.3-.3.1-.6.3-.2s.2 0 .3-.3l.5-.7.4-.1h.5c.2 0 .5 0 .6.3l-.3.4-.4.3v.5l.1.4c0 .6-.7 1.2-1 1.2Zm.7.3.2-.1.5-.4.5-.2.3-.1.7-.8c0-.2 0-.7-.2-1l-.4-.6-.2-.2-.1-.2v-.4l.2-.2c0-.2-.2-.4-.4-.4h-.8c-.2 0-.4 0-.5-.2H79c-.2 0-.4 0-.5.3l-.2.3-.4.4s0 .2-.2.3l-.3.6h-.2V12c-.2-.2-.2-.4-.2-.8v-.4l-.1-.5h-.3l-.1.3v1.5l-.2.6.1.6v.9l-.2.7c0 .5.2.6.3.7h.1c.2.2.2.4.2.7l-.1.5-.2.3.1.6.2.4v.6l-.2.4v.5a1.7 1.7 0 0 1 0 .7v.6l.3.2h.1c.2-.3.2-.7.2-1V20c0-.3 0-.5.2-.7l.2-.5V17c0-.3.1-.9.5-.7.3 0 .2.5.2.7a9.3 9.3 0 0 1 0 .8c0 .2.1.2.2.3l.2.2.9 1.1.3.4.2.2c.2.3.2.8.2 1.2v.5l.2.1.2.9c0 .4.3.7.4.7h.1c.1 0 .2 0 .2-.2V23a2 2 0 0 0-.2-.6c-.1-.2-.3-.5-.3-.8V20c0-.3-.2-.5-.5-1l-.2-.8V18c0-.4-.1-.6-.3-.9-.2-.2-.4-.5-.7-.6-.2 0-.3-.3-.3-.5 0-.3.3-.4.5-.4M72.7 18.7H71.8c-.2 0-.2 0-.3-.2v-.3l-.2-.2-.3-.3h-.1c-.2 0-.5-.1-.5-.6a3 3 0 0 1 0-1.2c0-.3.2-.4.3-.5l.3-.3v-.8c0-.3.3-.6.5-.7l.4-.2h.2l.1.4c0 .4-.2.4-.2.6v.4l.1.3.2.1.2.2c.4.2.4.4.3.8l-.1.4-.2.6.2.4.1.3c0 .2.2.6-.1.8Zm2-1.8-.3-.3a.9.9 0 0 1-.2-.4l.1-.8v-.2l.2-.2V14.2l-.1-.8-.1-.4c0-.1 0-.3-.2-.4l-.1-.2c-.2-.2-.4-.4-.6-.4l-.2-.2-.6-.1h-.2c-.4 0-.7.2-.9.3l-.8 1c0 .2-.2.3-.3.3l-.2.1c-.2.2-.4.3-.5.6l-.2.7-.1.4-.2.3c-.2.1-.3.3-.3.6s0 .4.2.6v.2c.2.3.3.8.3 1.2v1.3c0 .2.1.3.2.3H70l.6.2.4.2.2.1.2.2c0 .1 0 .2.2.3l.5-.1.2-.1h.5c.5-.1 1.1-.7 1.3-1l.5-.6.5-1c0-.2 0-.4-.3-.8" fill="#42B4CA"/><path d="M99.6 13.7c-.2-.1-.3 0-.4 0l-.2.1-.6.3h-.1c-.3.1-.4.3-.6.5l-.2.2-.8.5c-.2 0-.3.2-.4.3l-.4.2-.3.1-.8.3a2 2 0 0 1-.7.3h-.3c-.3.1-.4.3-.5.4v.2l-.7.5h-.1c-.1-.1 0-.3 0-.4l.2-.3v-.2c.1-.2.2-.4.1-.5 0-.3-.2-.4-.3-.6h-.1l-.2-.5v-.3l-.2-.2v-.8a7.4 7.4 0 0 0-.2-1.7l-.2-.3-.3-.3v-.2l-.2-.4-.2-.4-.1-.5-.3-1-.1-.4-.3-.7-.2-.4v-.2c-.1 0-.2-.2-.2 0V9.4c0 .2-.1.2-.2.3l-.1.6v.7l.2.4v1.9c0 .3.1.6.3.8l.1.5.2 1.2.1.3h.2c.2 0 .3.1.3.3a6.5 6.5 0 0 1-.5 1.8l-.1.5V19.6c0 .1 0 .3-.2.4l-.6.3h-.2l-.4.2c-.3 0-.7.2-.7.3l.1.2c.1 0 .2 0 .2.2v.1l-.3.3-.6.3-.8.8.1.4.2.4c0 .1-.1.4-.7 1-.2 0-.3.2-.5.3l-.4.4-.1.2v.2l-.2.1-.5.3-.3.5-.3.4a3 3 0 0 1-.7.4l-.4.3-.8.5v.1l-.4.3-.5.5-.3.5.2.1.4-.2.3-.3.3-.3 1-.8.9-.2c.3 0 .6 0 .8-.2a5 5 0 0 0 1.3-1.2l.5-.5.2-.1c.1-.2.4-.3.5-.6a6 6 0 0 1 1-1.6l.2-.1.2-.3.1-.3.2-.4c0-.3.5-.6 1-1a10.4 10.4 0 0 0 1.2-.8c.3-.2.4-.4.5-.6v-.2c.2-.3.9-.9 1.3-1h.1l1.1-.6.6-.8v-.2l1-.6.9-.6c0-.2.4-.4.8-.6h.2l.6-.6 1.2-1.1v-.1M68.6 26.2v-.8c0-.3-.2-.5-.4-.8v-.1c-.3-.5-.4-.8-.2-1.6.1-.6 0-.8-.2-1.1-.3-.4-.4-.6-.4-1v-.2c0-.3.1-.6 0-.8v-.2c-.2-.3-.4-.6-.4-1 0-.3 0-.5.2-.8l.2-.6c.2-.6.1-.9 0-1.1v-.8c.1-.2.2-.8.1-1v-.1c-.1-.1-.3-.2-.3-.6v-1.8l-.4-.8v-.3l-.1-.9V8.6L66.1 7V5a4.9 4.9 0 0 1 .6-2l.6-1.6V1l-.1-.1c-.1 0-.4.2-.5.5-.1.4-.2.5-.5.9l-.3.3-.2.4-.1.4-.3 1.2c0 .3-.3.7-.6 1l-.3.5a10 10 0 0 0-.5 1.6v.4l-.2.5-.3 1c0 .3-.2.6-.4.9H63c-.2.3-.5.6-.6 1.1l-.1.4-.2.6v2.2a9.9 9.9 0 0 0-.2.8c0 .3 0 .5-.2.8v.2l-.3.1c-.1 0-.2 0-.2-.2v-.7c-.2-.2-.3-.5-.3-.8v-.4l-.1-.6v-.5a11.8 11.8 0 0 1 0-1.8c0-.2-.2-.2-.3-.3l-.2-.2v-.9l-.1-.4-.1-.1c-.2-.3-.1-.7 0-1.2v-.2c0-.5-.1-.6-.3-.8-.3-.2-.3-.4-.3-.8l.3-1.5.4-1.5v-.2H60l-.3.3-.2.2a2 2 0 0 0-.4 1c0 .4-.2.9-.4 1.1-.3.2-.5.6-.5.9-.1.4-.2.7-.4.7h-.1c-.2 0-.2-.3-.2-.5v-.2l-.2.1v.2l-.2.2-.2.1c-.2 0-.2-.4-.1-.6v-.4.1l-.2.2-.2.5-.1.6v.6l-.1.4-.1.3-.1.5-.2.6-.2.9-.3.9c-.2.7-.1 1.4 0 1.8v1.4c0 .7 0 1.3-.3 1.6l-.3.4-.5.8v1.9l.3.6c.1.7 0 1.4-.1 1.7v.6l.1.4v1.4c0 .9.1 1 .2 1l.2-.2.1-.3.2-.7v-.4l.2-.4.2-.8a5.4 5.4 0 0 0-.1-1.3v-.1c-.1-.4 0-.8.2-1.4l.5-.5c.2-.2.3-.2.3-.5v-1.6l.1-.7.2-.7V16a11.8 11.8 0 0 1 .2-1.7l.2-.8c0-.2 0-.5-.2-.8v-.6c0-.5 0-1 .3-1.9.2-.6.4-.9.6-.9l.2.2v1.7c0 .3.3.5.4.6l.3.6.3.2.3.4.3 1.1c0 .6.1.8.2 1l.2.3.2 1 .1.5v1.5c.1.2.2.3.5.3.2 0 .3.2.4.3.2 0 .2.3.2.6s0 .7.2 1l.3.3c.2 0 .3 0 .3-.2v-1.6l.5-1 .1-.4.1-1V16l.5-.8.6-.8c.2-.8.2-.9 0-1.3a4 4 0 0 1 .2-1.6v-.1c.2-.8.3-1.2.6-1.2l.1.7.1 1 .2.2c.2.2.5.5.6.8 0 .2 0 .5-.2.7l-.2.6c0 .3 0 .5-.2.6V16c0 .3 0 .5.2.7V19c.1.3.4 1.2.8 1.6v.1c.2.3.3.4.3.7v.3l-.1.3v.3l-.1.5c0 .3.1.4.3.5.1 0 .2 0 .3.2v1.1l.5.4c.2.1.4.2.4.4.1.1 0 .3 0 .8v.4l.1-.2.3-.2c.1 0 .2.1.2.3v.1s.1.3.2.2v-.5" fill="#42B4CA"/></g><defs><clipPath id="a"><path fill="#fff" transform="translate(.5)" d="M0 0H100V30.5H0z"/></clipPath></defs></svg>