<svg xmlns="http://www.w3.org/2000/svg" xmlns:svg="http://www.w3.org/2000/svg" id="svg2" width="660" height="122" version="1.1"><metadata id="metadata34"/><g id="layer1" transform="translate(98.1395,283.56298)"><path id="path3046" d="m -40.084636,-236.75949 c 0.144128,-6.31282 1.892884,-9.96407 7.965488,-9.96407 4.868333,0 6.866911,2.86014 6.866911,7.27047 0,5.55374 -1.207474,6.61388 -7.802143,8.36264 -6.072604,1.62064 -14.163004,2.96264 -19.572618,5.94769 -5.387194,2.96584 -8.903924,10.09859 -8.903924,18.63739 0,15.74841 7.155168,22.24059 19.42849,22.24059 7.299296,0 14.166207,-3.77616 17.141655,-10.25873 h 0.291459 c 0.08327,2.84093 0.374734,5.81638 1.185055,8.36264 h 21.0299145 c -2.5398602,-3.22206 -2.5398602,-10.26513 -2.5398602,-15.77724 v -37.51498 c 0,-15.36407 -7.9654883,-21.56159 -25.9174643,-21.56159 -9.028835,0 -15.245567,1.20427 -20.344505,4.69218 -5.137372,3.51352 -8.0904,9.59894 -8.237731,19.56301 z m -0.393951,28.08259 c 0,-4.06762 1.079361,-6.36727 3.369399,-8.08079 2.017795,-1.62385 4.99004,-1.76798 11.856951,-5.41923 0,2.96264 -0.102491,6.77083 -0.102491,12.82422 0,7.26086 -4.205342,9.98328 -8.779012,9.98328 -4.058012,0 -6.344847,-3.50392 -6.344847,-9.30748" style="fill:#221e1f;fill-rule:nonzero;stroke:none"/><path id="path3048" d="m 41.123632,-186.16087 h 21.052335 v -96.32251 H 40.313311 v 31.30786 h -0.272242 c -3.616018,-7.84058 -10.252324,-9.83916 -16.305711,-9.83916 -17.9519756,0 -21.1548259,16.30891 -21.1548259,38.98189 0,27.24024 7.7989409,37.76801 22.5064289,37.76801 9.691825,0 14.166207,-5.79716 15.767632,-10.80962 h 0.269039 z m -0.39395,-36.01605 c 0,14.1534 -1.374023,21.98437 -7.821361,21.98437 -8.237731,0 -8.52919,-11.17795 -8.52919,-22.9196 0,-13.24058 0.416371,-22.00038 8.381859,-22.00038 7.42741,0 7.968692,9.97368 7.968692,22.93561" style="fill:#221e1f;fill-rule:nonzero;stroke:none"/><path id="path3050" d="m 129.74009,-186.16087 h -21.02991 v -8.63168 h -0.27224 c -3.09716,6.47937 -9.442007,10.52777 -17.513189,10.52777 -12.439871,0 -19.053756,-6.20072 -19.053756,-20.25162 v -54.615 h 21.859453 v 49.7787 c 0,5.25267 2.309255,8.33061 6.344842,8.33061 4.16371,0 7.82457,-3.21246 7.82457,-10.34841 v -47.7609 h 21.84023 z" style="fill:#221e1f;fill-rule:nonzero;stroke:none"/><path id="path3052" d="m 139.99562,-282.48338 h 21.86266 v 96.32251 h -21.86266 z" style="fill:#221e1f;fill-rule:nonzero;stroke:none"/><path id="path3054" d="m 177.37609,-244.02996 h -9.04806 v -15.10144 h 9.04806 v -21.44629 h 21.86265 v 21.44629 h 10.1082 v 15.10144 h -10.1082 v 36.83918 c 0,5.09894 1.87367,6.71958 7.00784,6.71958 0.93523,0 2.16512,-0.12491 3.10036,-0.24982 v 14.56015 c -4.17972,0.54129 -8.38186,0.81033 -12.54557,0.81033 -15.09823,0 -19.42528,-2.6904 -19.42528,-19.69753 z" style="fill:#221e1f;fill-rule:nonzero;stroke:none"/><path id="path3056" d="m 254.75695,-209.3527 c 0.16655,3.24448 0.41637,6.0726 1.49573,8.23452 1.22989,2.03061 3.22847,3.3726 6.76442,3.3726 5.11495,0 7.81816,-3.27651 7.81816,-7.4274 0,-3.37901 -1.62065,-6.60428 -8.36265,-8.90073 -17.95197,-6.05659 -26.58045,-9.57011 -26.58045,-24.9534 0,-14.57297 10.25232,-21.98757 27.80715,-21.98757 20.48863,0 26.44273,9.96407 26.44273,20.49184 v 2.45338 h -19.44771 v -1.38363 c 0,-6.31282 -2.56228,-8.05197 -7.15837,-8.05197 -5.80356,0 -7.42421,2.79929 -7.42421,6.70997 0,12.94913 34.9463,4.34627 34.9463,32.66908 0,14.68507 -9.86157,23.86123 -27.89682,23.86123 -19.57582,0 -27.81035,-7.28008 -27.81035,-21.84344 v -3.24448 z" style="fill:#221e1f;fill-rule:nonzero;stroke:none"/><path id="path3058" d="m 293.61393,-259.1314 h 21.84023 l 7.05268,53.81429 h 0.24982 l 8.21851,-53.81429 h 23.4833 l 7.69645,53.81429 h 0.24982 l 7.72208,-53.81429 h 21.02671 l -15.76763,72.97053 h -24.69078 l -7.94627,-53.8335 h -0.26904 l -8.52919,53.8335 h -25.0655 z" style="fill:#221e1f;fill-rule:nonzero;stroke:none"/><path id="path3060" d="m 397.62329,-283.56274 h 21.88187 v 16.73489 h -21.88187 z m 0,24.43134 h 21.88187 v 72.97053 h -21.88187 z" style="fill:#221e1f;fill-rule:nonzero;stroke:none"/><path id="path3062" d="m 429.46923,-259.1314 h 21.02991 v 8.62207 h 0.29146 c 3.08114,-6.49218 9.44521,-10.50535 17.51639,-10.50535 6.34164,0 14.7267,1.20427 17.94877,11.18115 5.163,-8.47794 9.98649,-11.18115 18.09931,-11.18115 12.39823,0 18.9929,6.19752 18.9929,20.21959 v 54.63422 h -21.86266 v -49.77869 c 0,-5.25268 -2.26761,-8.35944 -6.32563,-8.35944 -4.17971,0 -7.84057,3.25409 -7.84057,10.39965 v 47.73848 h -21.84344 v -49.77869 c 0,-5.25268 -2.28363,-8.35944 -6.34485,-8.35944 -4.1605,0 -7.81816,3.25409 -7.81816,10.39965 v 47.73848 h -21.84343 z" style="fill:#221e1f;fill-rule:nonzero;stroke:none"/><path id="path3064" d="m -98.1395,-282.66915 h 34.132775 v 15.11105 h -13.913181 v 90.90329 h 13.913181 v 15.09183 H -98.1395 Z" style="fill:#221e1f;fill-rule:nonzero;stroke:none"/><path id="path3066" d="m 528.31879,-176.65481 h 13.89397 v -90.90329 h -13.89397 v -15.11105 h 34.09434 v 121.10617 h -34.09434 z" style="fill:#221e1f;fill-rule:nonzero;stroke:none"/><path id="path3068" d="m 579.99038,216.24524 v 1.75837 h -5.09574 v 13.27261 h -2.06263 v -13.27261 h -5.09574 v -1.75837 z" style="fill:#fff;fill-rule:nonzero;stroke:none"/><path id="path3070" d="m 581.38041,216.24524 h 2.9146 l 4.39111,12.72172 4.25979,-12.72172 h 2.91459 v 15.03098 h -1.93132 v -8.81745 c 0,-0.36192 0,-0.86157 0.0384,-1.61103 v -2.26762 l -4.30464,12.6961 h -2.01779 l -4.42954,-12.6961 v 0.4452 c 0,0.35231 0.0416,0.94804 0.0801,1.6943 v 1.73915 8.81745 h -1.91531 z" style="fill:#fff;fill-rule:nonzero;stroke:none"/><path id="path3072" d="m -40.084636,156.15336 c 0.144128,-6.31602 1.892884,-9.96406 7.965488,-9.96406 4.868333,0 6.866911,2.86014 6.866911,7.26726 0,5.55695 -1.207474,6.61709 -7.802143,8.36585 -6.072604,1.62384 -14.163004,2.96264 -19.572618,5.94769 -5.387194,2.96584 -8.903924,10.09859 -8.903924,18.64059 0,15.74521 7.155168,22.23419 19.42849,22.23419 7.299296,0 14.166207,-3.77616 17.141655,-10.25553 h 0.291459 c 0.08327,2.84413 0.374734,5.81638 1.185055,8.36264 h 21.0299145 c -2.5398602,-3.22527 -2.5398602,-10.26513 -2.5398602,-15.77724 v -37.51819 c 0,-15.35766 -7.9654883,-21.55838 -25.9174643,-21.55838 -9.028835,0 -15.245567,1.20427 -20.344505,4.69218 -5.137372,3.51672 -8.0904,9.59894 -8.237731,19.563 z m -0.393951,28.0858 c 0,-4.07082 1.079361,-6.37047 3.369399,-8.084 2.017795,-1.62384 4.99004,-1.76797 11.856951,-5.41922 0,2.96264 -0.102491,6.77083 -0.102491,12.82101 0,7.26407 -4.205342,9.98649 -8.779012,9.98649 -4.058012,0 -6.344847,-3.50392 -6.344847,-9.30428" style="fill:#fff;fill-rule:nonzero;stroke:none"/><path id="path3074" d="M 41.123632,206.75199 H 62.175967 V 110.42947 H 40.313311 v 31.30466 h -0.272242 c -3.616018,-7.84057 -10.252324,-9.83595 -16.305711,-9.83595 -17.9519756,0 -21.1548259,16.30891 -21.1548259,38.98509 0,27.24024 7.7989409,37.76161 22.5064289,37.76161 9.691825,0 14.166207,-5.79076 15.767632,-10.80642 h 0.269039 z m -0.39395,-36.01605 c 0,14.1534 -1.374023,21.98437 -7.821361,21.98437 -8.237731,0 -8.52919,-11.17795 -8.52919,-22.9228 0,-13.24059 0.416371,-21.99718 8.381859,-21.99718 7.42741,0 7.968692,9.97368 7.968692,22.93561" style="fill:#fff;fill-rule:nonzero;stroke:none"/><path id="path3076" d="m 129.74009,206.75199 h -21.02991 v -8.62848 h -0.27224 c -3.09716,6.47617 -9.442007,10.52137 -17.513189,10.52137 -12.439871,0 -19.053756,-6.19752 -19.053756,-20.25162 v -54.6118 h 21.859453 v 49.77549 c 0,5.25588 2.309255,8.33382 6.344842,8.33382 4.16371,0 7.82457,-3.21246 7.82457,-10.34841 v -47.7609 h 21.84023 z" style="fill:#fff;fill-rule:nonzero;stroke:none"/><path id="path3078" d="m 139.99562,110.42947 h 21.86266 v 96.32252 h -21.86266 z" style="fill:#fff;fill-rule:nonzero;stroke:none"/><path id="path3080" d="m 177.37609,148.88289 h -9.04806 v -15.10143 h 9.04806 v -21.44629 h 21.86265 v 21.44629 h 10.1082 v 15.10143 h -10.1082 v 36.83919 c 0,5.09894 1.87367,6.71958 7.00784,6.71958 0.93523,0 2.16512,-0.12491 3.10036,-0.24982 v 14.56015 c -4.17972,0.53808 -8.38186,0.81353 -12.54557,0.81353 -15.09823,0 -19.42528,-2.6968 -19.42528,-19.70074 z" style="fill:#fff;fill-rule:nonzero;stroke:none"/><path id="path3082" d="m 254.75695,183.55695 c 0.16655,3.24769 0.41637,6.07581 1.49573,8.24093 1.22989,2.02741 3.22847,3.3694 6.76442,3.3694 5.11495,0 7.81816,-3.27651 7.81816,-7.42741 0,-3.38221 -1.62065,-6.60427 -8.36265,-8.90392 -17.95197,-6.05018 -26.58045,-9.56691 -26.58045,-24.9502 0,-14.56977 10.25232,-21.98757 27.80715,-21.98757 20.48863,0 26.44273,9.96407 26.44273,20.48863 v 2.45659 h -19.44771 v -1.38684 c 0,-6.30961 -2.56228,-8.04876 -7.15837,-8.04876 -5.80356,0 -7.42421,2.79929 -7.42421,6.70677 0,12.95233 34.9463,4.34947 34.9463,32.67228 0,14.68506 -9.86157,23.85803 -27.89682,23.85803 -19.57582,0 -27.81035,-7.28008 -27.81035,-21.84024 v -3.24769 z" style="fill:#fff;fill-rule:nonzero;stroke:none"/><path id="path3084" d="m 293.61393,133.78146 h 21.84023 l 7.05268,53.81108 h 0.24982 l 8.21851,-53.81108 h 23.4833 l 7.69645,53.81108 h 0.24982 l 7.72208,-53.81108 h 21.02671 l -15.76763,72.97053 h -24.69078 l -7.94627,-53.8335 h -0.26904 l -8.52919,53.8335 h -25.0655 z" style="fill:#fff;fill-rule:nonzero;stroke:none"/><path id="path3086" d="m 397.62329,109.35011 h 21.88187 v 16.7349 h -21.88187 z m 0,24.43135 h 21.88187 v 72.97053 h -21.88187 z" style="fill:#fff;fill-rule:nonzero;stroke:none"/><path id="path3088" d="m 429.46923,133.78146 h 21.02991 v 8.61887 h 0.29146 c 3.08114,-6.48898 9.44521,-10.50215 17.51639,-10.50215 6.34164,0 14.7267,1.20427 17.94877,11.18115 5.163,-8.47794 9.98649,-11.18115 18.09931,-11.18115 12.39823,0 18.9929,6.20072 18.9929,20.21639 v 54.63742 h -21.86266 v -49.7787 c 0,-5.24947 -2.26761,-8.36264 -6.32563,-8.36264 -4.17971,0 -7.84057,3.2605 -7.84057,10.40286 v 47.73848 h -21.84344 v -49.7787 c 0,-5.24947 -2.28363,-8.36264 -6.34485,-8.36264 -4.1605,0 -7.81816,3.2605 -7.81816,10.40286 v 47.73848 h -21.84343 z" style="fill:#fff;fill-rule:nonzero;stroke:none"/><path id="path3090" d="m -98.1395,110.24691 h 34.132775 v 15.10785 h -13.913181 v 90.90329 h 13.913181 v 15.08863 H -98.1395 Z" style="fill:#fff;fill-rule:nonzero;stroke:none"/><path id="path3092" d="m 528.31879,216.25805 h 13.89397 v -90.90329 h -13.89397 v -15.10785 h 34.09434 v 121.09977 h -34.09434 z" style="fill:#fff;fill-rule:nonzero;stroke:none"/></g></svg>